<?xml version="1.0" encoding="UTF-8"?>
<svg id="logo" xmlns="http://www.w3.org/2000/svg" version="1.1" viewbox="0 0 1024 1024" style="shape-rendering:geometricPrecision; text-rendering:geometricPrecision; image-rendering:optimizeQuality; fill-rule:evenodd; clip-rule:evenodd" fill="currentColor" xmlns:xlink="http://www.w3.org/1999/xlink">
<g><path d="M 472.5,1023.5 C 465.5,1023.5 458.5,1023.5 451.5,1023.5C 445.165,1022.69 438.665,1022.03 432,1021.5C 415.129,1017.01 399.296,1010.34 384.5,1001.5C 376.258,995.699 368.425,989.366 361,982.5C 351.21,988.912 341.21,995.245 331,1001.5C 320.395,1005.38 309.561,1008.55 298.5,1011C 287.423,1011.02 276.423,1011.86 265.5,1013.5C 263.122,1012.99 260.788,1012.32 258.5,1011.5C 256.212,1012.32 253.878,1012.99 251.5,1013.5C 235.13,1010.37 218.963,1006.37 203,1001.5C 180.222,989.389 162.722,971.889 150.5,949C 146.123,937.528 142.956,925.695 141,913.5C 140.333,895.833 140.333,878.167 141,860.5C 142.635,845.386 146.468,830.886 152.5,817C 153.182,811.939 154.182,806.939 155.5,802C 154.225,796.903 153.391,791.736 153,786.5C 153.226,768.481 153.06,750.481 152.5,732.5C 137.318,732.741 122.151,732.408 107,731.5C 98.0794,730.094 89.5794,727.761 81.5,724.5C 66.0111,717.768 52.8445,708.102 42,695.5C 40.2736,693.409 39.1069,691.076 38.5,688.5C 37.5,688.5 36.5,688.5 35.5,688.5C 32.7619,682.637 29.5952,676.971 26,671.5C 19.2888,657.637 16.4555,642.97 17.5,627.5C 16.8603,611.797 19.6936,596.797 26,582.5C 30.9175,574.625 35.7508,566.625 40.5,558.5C 47.5376,550.461 54.8709,542.628 62.5,535C 64.3091,532.762 66.6424,531.595 69.5,531.5C 69.3505,530.448 69.5172,529.448 70,528.5C 74.257,526.08 78.0903,523.08 81.5,519.5C 86.7135,517.066 91.3802,513.899 95.5,510C 101.436,506.864 107.436,504.03 113.5,501.5C 113.5,500.5 113.5,499.5 113.5,498.5C 119.626,497.429 125.293,495.095 130.5,491.5C 137.33,488.445 144.33,485.778 151.5,483.5C 151.903,456.064 153.736,428.731 157,401.5C 160.631,385.426 164.798,369.426 169.5,353.5C 170.162,350.532 170.495,347.532 170.5,344.5C 123.873,323.124 89.8735,288.79 68.5,241.5C 48.8193,189.721 51.4859,139.221 76.5,90C 81.7469,83.3952 86.2469,76.2285 90,68.5C 97.4192,60.0713 104.919,51.5713 112.5,43C 117.025,39.3076 121.692,35.8076 126.5,32.5C 127.246,31.2638 127.579,29.9305 127.5,28.5C 130.731,28.4415 133.065,26.9415 134.5,24C 146.736,15.74 159.736,8.74004 173.5,3C 183.135,1.66231 192.468,2.66231 201.5,6C 204.906,7.54086 207.24,10.0409 208.5,13.5C 211.116,14.1882 213.116,15.6882 214.5,18C 217.057,23.0059 219.224,28.1726 221,33.5C 221.167,55.5076 221.667,77.5076 222.5,99.5C 225.601,117.708 233.767,133.042 247,145.5C 247.483,146.448 247.649,147.448 247.5,148.5C 248.552,148.351 249.552,148.517 250.5,149C 260.142,157.929 270.809,165.429 282.5,171.5C 365.428,99.2628 462.261,71.5961 573,88.5C 585.771,91.0912 598.438,94.0912 611,97.5C 623.497,102.555 636.164,107.222 649,111.5C 664.8,120.278 680.633,128.611 696.5,136.5C 696.5,137.5 696.5,138.5 696.5,139.5C 698.288,139.215 699.955,139.548 701.5,140.5C 706.035,145.191 711.368,148.858 717.5,151.5C 718.412,155.079 720.745,157.079 724.5,157.5C 725.246,158.736 725.579,160.07 725.5,161.5C 726.93,161.421 728.264,161.754 729.5,162.5C 733.16,165.492 736.827,168.492 740.5,171.5C 745.512,168.737 750.512,166.07 755.5,163.5C 758.049,161.796 760.383,159.796 762.5,157.5C 764.045,156.548 765.712,156.215 767.5,156.5C 767.421,155.07 767.754,153.736 768.5,152.5C 786.635,139.614 797.302,121.947 800.5,99.5C 801.333,79.5083 801.833,59.5083 802,39.5C 803.404,34.3846 804.571,29.218 805.5,24C 806.843,20.6132 809.176,18.4465 812.5,17.5C 812.565,15.3043 813.232,13.3043 814.5,11.5C 824.56,3.29828 836.227,0.464948 849.5,3C 853.724,4.00256 857.724,5.50256 861.5,7.5C 865.615,9.97318 869.782,12.3065 874,14.5C 880.234,18.2147 886.068,22.548 891.5,27.5C 892.736,28.2458 894.07,28.5792 895.5,28.5C 895.5,29.5 895.5,30.5 895.5,31.5C 897.58,32.0444 899.58,32.8777 901.5,34C 909.177,41.211 916.511,48.711 923.5,56.5C 924.325,57.3857 925.325,57.719 926.5,57.5C 928.161,61.0075 929.494,64.6742 930.5,68.5C 932.143,68.4802 933.476,69.1468 934.5,70.5C 967.345,118.236 976.012,170.236 960.5,226.5C 955.978,237.713 951.311,248.88 946.5,260C 941.632,266.701 936.965,273.534 932.5,280.5C 931.675,281.386 930.675,281.719 929.5,281.5C 928,285.833 926,289.833 923.5,293.5C 922.022,293.238 920.689,293.571 919.5,294.5C 916.629,300.099 912.296,304.099 906.5,306.5C 904.896,308.179 904.229,310.179 904.5,312.5C 903.07,312.421 901.736,312.754 900.5,313.5C 894.163,319.324 887.496,324.657 880.5,329.5C 874.687,331.76 869.353,334.76 864.5,338.5C 861.535,339.709 858.535,340.709 855.5,341.5C 855.5,342.5 855.5,343.5 855.5,344.5C 854.5,344.5 853.5,344.5 852.5,344.5C 857.004,362.213 861.504,379.879 866,397.5C 870.018,426.02 871.518,454.686 870.5,483.5C 896.687,491.855 921.02,503.855 943.5,519.5C 959.937,531.83 974.271,546.33 986.5,563C 1004.45,591.099 1010.11,621.599 1003.5,654.5C 996.854,674.236 986.187,691.236 971.5,705.5C 961.449,713.195 950.615,719.862 939,725.5C 929.664,728.311 920.164,730.478 910.5,732C 897.171,732.5 883.837,732.667 870.5,732.5C 872.525,763.02 868.525,792.687 858.5,821.5C 850.643,842.572 841.143,862.906 830,882.5C 828.981,883.687 827.814,884.687 826.5,885.5C 821.832,892.516 817.165,899.516 812.5,906.5C 808.069,907.931 805.402,910.931 804.5,915.5C 803.264,916.357 801.931,917.023 800.5,917.5C 799.502,920.164 798.002,922.497 796,924.5C 790.658,928.676 785.824,933.343 781.5,938.5C 779.711,940.033 777.711,941.033 775.5,941.5C 775.719,942.675 775.386,943.675 774.5,944.5C 753.587,961.967 729.754,974.301 703,981.5C 674.06,987.306 646.06,984.639 619,973.5C 612.286,969.36 605.453,965.36 598.5,961.5C 592.47,965.511 586.47,969.511 580.5,973.5C 580.5,974.5 580.5,975.5 580.5,976.5C 571.164,983.281 561.664,989.948 552,996.5C 534.609,1006.77 516.109,1014.77 496.5,1020.5C 488.366,1021.61 480.366,1022.61 472.5,1023.5 Z M 161.5,77.5 C 163.277,87.962 164.277,98.7953 164.5,110C 166.181,121.541 169.181,132.707 173.5,143.5C 177.037,147.979 179.537,152.979 181,158.5C 185.415,164.844 189.748,171.178 194,177.5C 201.264,184.553 208.43,191.719 215.5,199C 223.626,205.174 231.959,211.174 240.5,217C 236.373,224.192 231.373,230.692 225.5,236.5C 224.548,238.045 224.215,239.712 224.5,241.5C 223.178,241.33 222.011,241.663 221,242.5C 217.932,248.602 214.265,254.268 210,259.5C 204.218,269.08 199.385,279.08 195.5,289.5C 187.414,284.332 179.081,279.332 170.5,274.5C 152.907,261.734 138.573,245.901 127.5,227C 114.27,202.227 110.604,176.06 116.5,148.5C 121.846,129.555 130.846,112.721 143.5,98C 144.148,96.5603 144.481,95.0603 144.5,93.5C 146.433,93.2714 148.1,92.4381 149.5,91C 150.337,89.9887 150.67,88.8221 150.5,87.5C 152.433,87.2714 154.1,86.4381 155.5,85C 157.768,82.5819 159.768,80.0819 161.5,77.5 Z M 859.5,77.5 C 886.06,99.1667 902.394,127.167 908.5,161.5C 911.675,187.648 906.342,211.814 892.5,234C 885.888,242.423 879.555,250.923 873.5,259.5C 870.189,261.298 866.856,263.298 863.5,265.5C 862.05,266.85 861.383,268.516 861.5,270.5C 859.712,270.215 858.045,270.548 856.5,271.5C 853.931,273.986 851.264,276.32 848.5,278.5C 841.935,282.112 835.602,285.778 829.5,289.5C 823.045,277.639 816.712,265.639 810.5,253.5C 809.5,253.5 808.5,253.5 807.5,253.5C 807.785,251.712 807.452,250.045 806.5,248.5C 798.223,237.576 790.223,226.576 782.5,215.5C 814.587,197.256 837.92,171.089 852.5,137C 858.989,117.721 861.323,97.8876 859.5,77.5 Z M 485.5,141.5 C 554.51,136.506 617.177,153.506 673.5,192.5C 752.446,250.344 798.446,328.677 811.5,427.5C 812.833,539.167 812.833,650.833 811.5,762.5C 808.498,782.694 803.165,802.194 795.5,821C 788.043,835.256 780.043,849.09 771.5,862.5C 767.847,867.153 763.847,871.486 759.5,875.5C 757.072,878.591 755.072,881.924 753.5,885.5C 748.284,888.934 743.284,892.601 738.5,896.5C 738.5,897.5 738.5,898.5 738.5,899.5C 736.436,899.687 734.436,900.187 732.5,901C 730.197,903.807 727.531,906.141 724.5,908C 713.294,915.013 701.294,920.18 688.5,923.5C 678.167,924.833 667.833,924.833 657.5,923.5C 649.806,921.587 643.139,917.921 637.5,912.5C 639.803,909.723 642.137,906.89 644.5,904C 645.287,901.901 645.62,899.734 645.5,897.5C 646.5,897.5 647.5,897.5 648.5,897.5C 648.5,896.167 648.5,894.833 648.5,893.5C 649.5,893.5 650.5,893.5 651.5,893.5C 655.646,882.776 660.646,872.443 666.5,862.5C 670.553,848.205 667.22,836.038 656.5,826C 647.828,820.864 638.494,819.364 628.5,821.5C 624.769,822.985 620.936,824.651 617,826.5C 610.246,836.369 604.412,846.869 599.5,858C 595.811,865.536 591.477,872.702 586.5,879.5C 585.548,881.045 585.215,882.712 585.5,884.5C 583.516,884.383 581.85,885.05 580.5,886.5C 578.17,889.676 576.004,893.009 574,896.5C 566.512,905.301 558.679,913.801 550.5,922C 536.03,936.26 519.53,947.76 501,956.5C 466.314,971.915 435.48,966.582 408.5,940.5C 416.323,931.54 424.157,922.54 432,913.5C 434.665,907.752 438.165,902.586 442.5,898C 443.287,895.901 443.62,893.734 443.5,891.5C 444.5,891.5 445.5,891.5 446.5,891.5C 449.414,885.073 452.581,878.74 456,872.5C 456.667,867.833 456.667,863.167 456,858.5C 453.349,851.782 449.849,845.615 445.5,840C 430.684,831.885 416.684,832.885 403.5,843C 398.043,852.662 392.21,862.162 386,871.5C 385.506,873.134 385.34,874.801 385.5,876.5C 384.07,876.421 382.736,876.754 381.5,877.5C 371.806,891.859 360.472,904.859 347.5,916.5C 346.264,917.246 344.93,917.579 343.5,917.5C 343.5,918.833 343.5,920.167 343.5,921.5C 342.07,921.421 340.736,921.754 339.5,922.5C 334.374,927.081 329.041,931.415 323.5,935.5C 315.696,941.133 307.529,946.133 299,950.5C 288.805,954.122 278.472,957.122 268,959.5C 256.157,958.394 244.49,956.394 233,953.5C 224.691,949.739 217.191,944.739 210.5,938.5C 208.04,933.29 205.04,928.457 201.5,924C 192.304,894.25 193.97,865.25 206.5,837C 211.226,823.6 213.226,809.766 212.5,795.5C 212.332,786.287 211.665,777.12 210.5,768C 211.306,763.856 211.973,759.689 212.5,755.5C 211.199,704.694 210.532,653.861 210.5,603C 210.833,554.5 211.167,506 211.5,457.5C 212.332,446.181 212.832,434.848 213,423.5C 214.355,412.516 216.189,401.516 218.5,390.5C 221.846,379.295 224.679,367.962 227,356.5C 232.616,344.986 237.449,333.153 241.5,321C 244.768,317.094 247.435,312.761 249.5,308C 248.057,305.922 248.724,305.089 251.5,305.5C 251.519,303.94 251.852,302.44 252.5,301C 263.334,282.941 275.334,265.774 288.5,249.5C 289.246,248.264 289.579,246.93 289.5,245.5C 292.965,245.649 294.965,243.982 295.5,240.5C 324.708,209.54 358.542,184.54 397,165.5C 413.213,159.151 429.713,153.484 446.5,148.5C 459.626,146.088 472.626,143.755 485.5,141.5 Z M 149.5,549.5 C 150.833,549.5 152.167,549.5 153.5,549.5C 153.5,590.167 153.5,630.833 153.5,671.5C 137.255,673.633 121.255,672.633 105.5,668.5C 94.9873,662.738 86.3206,654.905 79.5,645C 75.7398,636.304 74.7398,627.304 76.5,618C 79.9929,607.757 85.4929,598.923 93,591.5C 93.4935,589.866 93.6602,588.199 93.5,586.5C 96.9587,584.87 100.292,583.037 103.5,581C 109.916,574.634 116.916,568.967 124.5,564C 132.634,558.607 140.967,553.774 149.5,549.5 Z M 870.5,549.5 C 890.925,559.029 909.592,571.029 926.5,585.5C 932.281,592.265 937.614,599.265 942.5,606.5C 946.904,615.356 948.404,624.689 947,634.5C 940.763,656.293 926.263,668.793 903.5,672C 892.466,672.765 881.466,672.599 870.5,671.5C 869.203,630.815 869.203,590.149 870.5,549.5 Z"/></g>
<g><path d="M 377.5,326.5 C 398.563,323.018 416.729,328.352 432,342.5C 433.937,346.711 436.604,350.378 440,353.5C 442.201,359.102 444.201,364.769 446,370.5C 445.501,403.855 445.334,437.189 445.5,470.5C 444.24,475.813 442.24,480.813 439.5,485.5C 435.432,489.895 431.765,494.562 428.5,499.5C 413.662,510.433 396.995,514.433 378.5,511.5C 372.298,510.063 366.298,508.063 360.5,505.5C 353.639,500.642 347.472,494.975 342,488.5C 338.801,482.852 336.468,476.852 335,470.5C 334.187,435.817 334.353,401.151 335.5,366.5C 340.42,350.419 350.253,338.419 365,330.5C 369.434,329.632 373.601,328.298 377.5,326.5 Z"/></g>
<g><path d="M 622.5,326.5 C 637.901,324.694 652.568,327.028 666.5,333.5C 677.621,342.381 685.287,353.714 689.5,367.5C 691.024,385.292 691.691,403.125 691.5,421C 691.447,435.51 691.113,450.01 690.5,464.5C 689.358,471.052 687.524,477.385 685,483.5C 682.853,486.438 680.687,489.438 678.5,492.5C 677.476,493.853 676.143,494.52 674.5,494.5C 674.649,495.552 674.483,496.552 674,497.5C 656.303,512.044 636.303,516.044 614,509.5C 608.364,506.953 602.864,504.287 597.5,501.5C 597.5,500.5 597.5,499.5 597.5,498.5C 596.448,498.649 595.448,498.483 594.5,498C 593.667,496.5 592.5,495.333 591,494.5C 589.057,490.402 586.557,486.568 583.5,483C 581.064,477.326 579.064,471.493 577.5,465.5C 578.738,454.725 579.405,443.891 579.5,433C 579.102,417.821 578.435,402.654 577.5,387.5C 575.984,364.112 584.818,346.112 604,333.5C 610.099,330.729 616.266,328.395 622.5,326.5 Z"/></g>
</svg>
